<?xml version="1.0" encoding="UTF-8" standalone="no"?>
<svg
   xmlns:dc="http://purl.org/dc/elements/1.1/"
   xmlns:cc="http://creativecommons.org/ns#"
   xmlns:rdf="http://www.w3.org/1999/02/22-rdf-syntax-ns#"
   xmlns:svg="http://www.w3.org/2000/svg"
   xmlns="http://www.w3.org/2000/svg"
   xmlns:sodipodi="http://sodipodi.sourceforge.net/DTD/sodipodi-0.dtd"
   xmlns:inkscape="http://www.inkscape.org/namespaces/inkscape"
   version="1.1"
   id="svg2"
   width="860"
   height="253"
   viewBox="0 0 860 253"
   sodipodi:docname="intagram-logo.png.svg"
   inkscape:version="1.0.1 (3bc2e813f5, 2020-09-07)">
  <metadata
     id="metadata8">
    <rdf:RDF>
      <cc:Work
         rdf:about="">
        <dc:format>image/svg+xml</dc:format>
        <dc:type
           rdf:resource="http://purl.org/dc/dcmitype/StillImage" />
        <dc:title></dc:title>
      </cc:Work>
    </rdf:RDF>
  </metadata>
  <defs
     id="defs6" />
  <sodipodi:namedview
     pagecolor="#ffffff"
     bordercolor="#666666"
     borderopacity="1"
     objecttolerance="10"
     gridtolerance="10"
     guidetolerance="10"
     inkscape:pageopacity="0"
     inkscape:pageshadow="2"
     inkscape:window-width="1366"
     inkscape:window-height="704"
     id="namedview4"
     showgrid="false"
     inkscape:zoom="1.3581395"
     inkscape:cx="598.24486"
     inkscape:cy="126.5"
     inkscape:window-x="0"
     inkscape:window-y="0"
     inkscape:window-maximized="1"
     inkscape:current-layer="g10" />
  <g
     inkscape:groupmode="layer"
     inkscape:label="Image"
     id="g10">
    <path
       style="fill:#333533;fill-opacity:1"
       d="m 460.70268,235.61478 c -6.28872,-2.3378 -11.28326,-6.21442 -13.23878,-10.27554 -2.41135,-5.00779 -2.37901,-12.73626 0.0746,-17.83924 2.7694,-5.75963 14.48408,-17.54039 28.34013,-28.5 11.92257,-9.43029 12.0111,-9.53118 12.06601,-13.75 0.0304,-2.3375 -0.18469,-4.25 -0.47802,-4.25 -0.29334,0 -2.05978,1.52645 -3.92544,3.39211 -9.06407,9.06406 -24.09894,11.68709 -34.53201,6.02456 -2.97551,-1.61496 -6.51983,-4.57336 -7.94155,-6.62872 -1.41222,-2.04163 -2.84537,-3.72913 -3.18478,-3.75 -0.33942,-0.0209 -1.79184,1.73718 -3.22761,3.90677 -3.86483,5.84015 -10.14593,9.15238 -17.42197,9.18718 -3.25279,0.0156 -7.46208,-0.61847 -9.35396,-1.40895 -4.61,-1.92618 -9.46341,-6.9326 -10.87904,-11.22201 -0.63548,-1.92552 -1.45802,-3.49787 -1.82786,-3.49411 -0.36985,0.004 -1.7298,1.55956 -3.02211,3.45733 -7.93238,11.64874 -24.93871,16.29886 -37.36811,10.21772 -5.93448,-2.90347 -9.28176,-6.53997 -12.928,-14.04503 C 340.61521,154.08658 339.30948,152 338.95261,152 c -0.35687,0 -1.46143,1.80196 -2.45458,4.00436 -2.19273,4.8626 -9.9256,13.119 -14.58736,15.57494 -2.08171,1.0967 -5.45382,1.77748 -8.65423,1.74716 -11.11321,-0.10526 -19.36247,-7.7278 -22.71678,-20.99091 -2.91527,-11.52713 -2.74777,-11.40042 -6.4346,-4.8677 -6.24048,11.05751 -16.17072,19.83374 -26.87198,23.74915 -12.00632,4.3929 -35.83556,2.27143 -41.83114,-3.72415 -2.06096,-2.06096 -2.245,-2.77785 -1.33291,-5.19198 1.50109,-3.9731 5.92012,-8.30087 8.47591,-8.30087 1.19392,0 5.19242,1.575 8.88557,3.5 8.67989,4.52427 11.74937,4.52012 16.2915,-0.022 3.33225,-3.33225 3.49776,-3.81433 3.07204,-8.94799 -0.58639,-7.07103 -3.81815,-11.70583 -13.39584,-19.21153 -4.08358,-3.20016 -7.75623,-5.91196 -8.16145,-6.02622 -0.40522,-0.11427 -5.68676,7.07198 -11.73676,15.96944 -17.10959,25.16229 -26.8359,34.07164 -37.19587,34.07164 -13.19728,0 -16.40042,-10.88249 -14.5454,-49.41717 0.59338,-12.32653 0.86883,-22.62193 0.61211,-22.87865 -0.91258,-0.91258 -3.93659,1.72277 -8.64898,7.53739 -9.40647,11.60664 -19.68481,35.47704 -23.58169,54.76602 -1.72313,8.52925 -2.00371,9.11494 -4.73591,9.88585 -2.67904,0.7559 -7.35965,0.41446 -11.66523,-0.85096 -0.96853,-0.28465 -2.49333,-1.93379 -3.38845,-3.66476 -1.43144,-2.76809 -1.60546,-7.8393 -1.44458,-42.09656 0.1006,-21.42214 0.44875,-39.379476 0.77367,-39.905194 0.84962,-1.374714 9.86507,-0.09879 14.16841,2.005206 L 131.5,90.5 l 0.5,20.38727 0.5,20.38726 4.73921,-11.38726 C 146.71036,97.130236 157.15112,85.995478 169,86.015346 c 3.16658,0.0053 12.7663,4.431087 15.83587,7.300839 l 2.33586,2.183815 -0.71757,24.62887 c -0.39467,13.54588 -0.40654,26.703 -0.0264,29.23805 1.29968,8.66688 5.05262,9.30241 11.52327,1.95136 3.88762,-4.41656 16.66224,-23.14318 21.06528,-30.88008 l 2.31155,-4.0618 -2.66393,-3.92034 c -7.85593,-11.56103 3.22357,-27.741774 18.99574,-27.741774 12.40612,0 13.97883,8.500641 3.98595,21.544364 -2.00509,2.61726 -3.64563,4.97088 -3.64563,5.23026 0,0.25938 5.33562,4.04624 11.85694,8.41524 16.39819,10.9861 21.12056,16.98378 21.13748,26.84585 0.003,1.7875 0.42057,3.25 0.92777,3.25 1.77102,0 9.1592,-9.55181 12.35561,-15.97395 l 3.2222,-6.47395 0.3176,-22.77605 c 0.25504,-18.289962 0.0581,-22.801108 -1,-22.903272 -0.72468,-0.06997 -6.2676,-0.407472 -12.3176,-0.75 L 263.5,80.5 263.5576,75.834342 C 263.64837,68.472843 264.49002,68 277.50255,68 h 11.25765 l 0.68537,-11.75 c 0.96281,-16.506597 0.44642,-15.598012 8.53607,-15.019201 3.72155,0.266275 8.4893,1.335777 10.59501,2.376669 L 312.4052,45.5 l -0.27386,11.598741 -0.27386,11.598741 6.82126,0.64415 c 3.75169,0.354282 9.82196,0.647349 13.48947,0.651259 3.66752,0.0039 7.38002,0.280254 8.25,0.614098 2.063,0.791646 2.0779,6.239701 0.0251,9.170505 C 338.96121,81.893474 338.21828,82 324.9433,82 c -13.78719,0 -13.94352,0.02519 -13.96309,2.25 -0.0109,1.2375 -0.4482,13.625488 -0.9718,27.52886 -1.01034,26.8281 -0.37452,37.28853 2.65237,43.63597 4.24297,8.89761 14.397,4.33762 21.44902,-9.63235 2.48729,-4.92728 3.2657,-8.04889 3.93846,-15.79401 1.50798,-17.36081 5.43063,-27.95603 13.44786,-36.323148 5.94343,-6.202822 12.01183,-8.916317 19.93068,-8.912046 7.08455,0.0038 11.7809,1.734166 16.89593,6.22522 3.35682,2.947329 3.67727,3.047383 3.67727,1.148149 0,-1.144296 1.10199,-2.802593 2.44887,-3.685103 2.10909,-1.381928 3.2538,-1.438967 8.25,-0.411085 10.48113,2.156307 9.70233,-0.179226 8.94899,26.836843 -0.95622,34.29163 0.79219,45.15673 7.65498,47.57024 4.06281,1.42882 7.73505,-0.36495 11.16037,-5.45146 l 3.02097,-4.48608 -0.29169,-14 c -0.23764,-11.40594 0.0759,-15.41823 1.69247,-21.65411 5.41104,-20.87359 16.61162,-32.305463 31.50377,-32.154316 7.14935,0.07256 11.83937,1.813778 16.934,6.286922 3.35682,2.947329 3.67727,3.047383 3.67727,1.148149 0,-1.144296 1.10199,-2.802593 2.44887,-3.685103 2.10909,-1.381928 3.2538,-1.438967 8.25,-0.411085 C 507.88222,90.125501 507,86.983349 507,121.15763 c 0,26.16189 0.18907,29.93035 1.44918,28.88455 2.48539,-2.06269 13.58099,-19.83236 16.76595,-26.85078 1.67012,-3.68027 3.6637,-8.79969 4.43018,-11.37648 1.34952,-4.53685 1.31518,-4.76352 -1.08518,-7.16388 -9.42056,-9.420562 1.51335,-25.642066 14.63404,-21.71101 4.44056,1.330422 5.80583,3.445464 5.80583,8.994229 0,4.729545 -0.25145,4.673776 11.5,2.550528 12.83135,-2.318365 17.12004,-2.018593 20.57692,1.43829 1.6077,1.607692 2.92308,3.663643 2.92308,4.568783 0,0.90513 -1.14231,6.15207 -2.53846,11.65985 -6.07534,23.96708 -4.9678,42.73279 2.89642,49.07605 4.93353,3.97938 12.03952,0.85187 15.18855,-6.68484 1.18214,-2.82926 1.24733,-4.87644 0.35825,-11.25075 -1.82564,-13.08904 0.52821,-29.29288 5.75303,-39.60356 3.42744,-6.763722 10.92283,-14.579316 16.26901,-16.96401 5.36563,-2.393372 15.01865,-2.619255 20.14593,-0.47142 1.965,0.823146 5.2275,2.949538 7.25,4.725316 3.35682,2.947329 3.67727,3.047383 3.67727,1.148149 0,-1.144296 1.09054,-2.79509 2.42343,-3.668429 2.03064,-1.330532 3.35518,-1.415645 8.17233,-0.525147 10.78516,1.993745 10.15526,0.07156 9.61079,29.328081 -0.26024,13.98371 -0.15406,28.40462 0.23595,32.04648 0.93118,8.6953 3.7486,13.07624 8.6775,13.49307 3.074,0.25996 4.06125,-0.25892 7.28781,-3.83033 7.61753,-8.4317 7.93687,-9.99973 8.54768,-41.97037 0.29948,-15.675 0.93641,-29.107553 1.4154,-29.850119 1.03553,-1.605336 10.15036,-0.777577 15.37911,1.396648 l 3.25,1.351418 v 15.751023 c 0,9.37998 0.36434,15.36677 0.90074,14.80103 0.49541,-0.5225 2.94475,-6.21023 5.44298,-12.6394 C 731.55182,89.260668 733.79686,86 739.36082,86 c 4.8358,0 12.05116,2.745183 14.74105,5.608434 2.23825,2.38251 2.39201,3.447124 3.10524,21.499916 0.82731,20.94038 1.848,25.57688 3.69976,16.80621 2.36929,-11.22195 10.82547,-34.343936 14.86196,-40.637496 2.16177,-3.370555 7.07018,-3.826478 14.51678,-1.348408 6.33247,2.107311 10.61039,5.015878 10.82552,7.360299 0.0611,0.666075 0.0349,11.561045 -0.0582,24.211045 -0.0963,13.08957 0.29341,25.35657 0.90454,28.46911 2.07077,10.54658 6.21934,15.20726 12.20015,13.70617 2.8938,-0.7263 5.9598,-5.87647 8.22547,-13.81692 1.74885,-6.12916 3.63841,-7.69397 6.19887,-5.13351 1.25773,1.25772 1.49537,2.70427 1.01977,6.20751 -1.4619,10.76829 -6.32308,19.31365 -12.94176,22.75 -4.49366,2.33307 -13.20935,2.12553 -18.16,-0.43243 -11.71185,-6.05141 -15.36598,-16.21812 -16.08409,-44.74993 -0.24917,-9.9 -0.44637,-18.45 -0.43821,-19 0.0269,-1.8171 -3.55964,4.87558 -6.79109,12.6724 -4.10153,9.89615 -7.90941,25.69715 -8.78078,36.43629 -0.80199,9.88408 -1.76275,10.89974 -9.59839,10.14683 C 745.61363,165.67994 741.99607,155.73675 740.16052,121 739.35365,105.73046 738.25774,104.9918 732.74221,116 725.84814,129.75956 722,147.48584 722,165.48351 c 0,6.86752 -1.32523,7.93224 -9.85054,7.91413 -9.27875,-0.0197 -12.55856,-1.76626 -12.96629,-6.90474 -0.44589,-5.61955 -1.58596,-6.19527 -4.12687,-2.08399 -8.1633,13.20849 -29.06128,11.54087 -36.04034,-2.87595 l -2.24946,-4.64676 -5.13325,5.50422 c -12.76394,13.68638 -31.96065,14.89234 -42.94559,2.6979 l -3.81235,-4.2321 -4.18765,4.44654 c -5.48875,5.82806 -9.90548,7.98295 -16.36212,7.98295 -10.29762,0 -20.26126,-7.27128 -23.90493,-17.44538 -3.4969,-9.7643 -3.45001,-28.21993 0.10657,-41.94522 1.05222,-4.06064 1.26111,-6.50682 0.61117,-7.15676 -0.60337,-0.60337 -3.89908,-0.71462 -8.47284,-0.28603 l -7.48537,0.70144 -2.17845,5.17312 c -6.0968,14.4779 -22.15999,38.70333 -31.91102,48.12607 L 507,164.4059 v 17.23167 c 0,31.39798 -5.31933,44.80427 -21,52.92624 -4.65608,2.41166 -19.93008,3.04621 -25.29732,1.05097 z m 16.30514,-7.23459 C 484.92283,225.21324 489.32817,211.60936 488.78881,192 L 488.5,181.5 477.28807,192.55638 c -9.04912,8.92356 -11.82141,12.35879 -14.37142,17.80805 -3.47607,7.42818 -3.53866,12.1746 -0.20939,15.87763 3.56848,3.96909 8.04995,4.63913 14.30056,2.13813 z M 380.18523,159.4678 c 7.63493,-4.9939 12.5849,-21.82626 11.58348,-39.3896 C 390.7604,102.39397 382.61734,94.291502 371.26626,99.677942 363.53088,103.34862 359,116.12463 359,134.2659 c 0,11.8574 1.72578,19.06632 5.6931,23.78121 4.67119,5.55141 8.62286,5.91379 15.49213,1.42069 z m 92.38742,1.49703 c 5.1133,-2.47531 8.90011,-7.71233 11.6657,-16.13326 1.67935,-5.11344 2.09694,-9.02503 2.17053,-20.33157 0.0832,-12.78218 -0.11351,-14.41556 -2.26129,-18.77728 C 481.2958,99.931299 477.3449,97.556273 471.79982,98.300025 460.60422,99.801669 454,113.36929 454,134.86772 c 0,14.7759 3.03144,23.41784 9.29859,26.50814 4.09565,2.01954 4.26904,2.01186 9.27406,-0.41103 z m 169.41882,-1.84565 c 7.72852,-6.25521 11.44006,-18.82141 10.80612,-36.58647 -0.35457,-9.93635 -0.81692,-12.77999 -2.65382,-16.32194 -2.95969,-5.70695 -7.39025,-8.447392 -12.77508,-7.901792 -7.15528,0.724985 -11.86481,5.852572 -15.00711,16.339252 -2.50022,8.34388 -2.54969,29.88105 -0.0848,36.94029 1.68842,4.8356 5.45465,9.47465 8.72327,10.74488 2.7047,1.05109 7.42815,-0.33018 10.99147,-3.21422 z M 66.012901,187.75 c 0.0071,-1.2375 1.000651,-5.175 2.2079,-8.75 2.145919,-6.35466 2.203079,-7.84717 2.556428,-66.75 C 71.043978,67.783314 70.841526,52 70.004406,52 c -2.24941,0 -10.696271,9.88506 -14.288824,16.721702 -8.418183,16.01983 -8.871035,33.231478 -1.166848,44.348618 6.692483,9.65726 -4.37085,8.64214 -15.314043,-1.40514 -6.125958,-5.62443 -8.1912,-10.45783 -8.188994,-19.16518 0.0047,-18.641018 18.640565,-42.873385 38.888391,-50.566954 4.682195,-1.779094 5.90893,-1.867838 11.261904,-0.814704 3.618231,0.711843 7.195948,2.182018 8.996055,3.696709 l 2.988714,2.514836 -0.44771,56.085053 c -0.476768,59.72517 -0.532035,60.42069 -5.586676,70.30726 -3.239014,6.33531 -7.64759,10.85035 -13.387266,13.71055 -6.324168,3.15147 -7.762797,3.21039 -7.746208,0.31725 z"
       id="path837" />
  </g>
</svg>
